Original version of TPB AFK as remastered edition to DTS-5.1/96 Khz/6-channels

Spoken language : Swedish

Subtitle : English 

Full details :

General :


    Complete name : TPB AFK-Rip.Mkv H.264-HD.1080p-Remastered[)(]DTS-5.1-Swedish+(US_sub).mkv

    Format : Matroska
    Format version : Version 2
    File size : 8.73 GiB
    Duration : 1h 22mn
    Overall bit rate mode : Variable
    Overall bit rate : 15.2 Mbps
    Writing application : Lavf51.12.1
    Writing library : Lavf51.12.1

  Video #1
    ID : 1
    Format : AVC
    Format/Info : Advanced Video Codec
    Format profile : Baseline@L4.0
    Format settings, CABAC : No
    Format settings, ReFrames : 1 frame
    Format settings, GOP : M=1, N=12
    Codec ID : V_MPEG4/ISO/AVC
    Duration : 1h 22mn
    Bit rate mode : Variable
    Bit rate : 6 989 Kbps
    Maximum bit rate : 10.5 Mbps
    Width : 1 920 pixels
    Height : 1 080 pixels
    Display aspect ratio : 16:9
    Frame rate mode : Constant
    Frame rate : 25.000 fps
    Original frame rate : 24.000 fps
    Color space : YUV
    Chroma subsampling : 4:2:0
    Bit depth : 8 bits
    Scan type : Progressive
    Bits/(Pixel*Frame) : 0.135
    Stream size : 4.01 GiB (46%)
    Default : Yes
    Forced : No

  Audio #2
    ID : 2
    Format : DTS
    Format/Info : Digital Theater Systems
    Mode : 16
    Format settings, Endianness : Big
    Codec ID : A_DTS
    Duration : 1h 22mn
    Bit rate mode : Constant
    Bit rate : 7 937 Kbps
    Channel(s) : 6 channels
    Channel positions : Front: L C R, Side: L R, LFE
    Sampling rate : 96.0 KHz
    Bit depth : 16 bits
    Compression mode : Lossy
    Stream size : 4.55 GiB (52%)
    Default : Yes
    Forced : No

Good quality between video and sound for sure.

Dedicated to TPB staff or team and to all registered members and even much more.

enjoy and seed,please.

Sincerely yours